<?xml version="1.0" encoding="UTF-8" standalone="no"?>
<svg
   version="1.1"
   id="Layer_1"
   x="0px"
   y="0px"
   width="100%"
   viewBox="0 0 1611 1162"
   enable-background="new 0 0 1611 1162"
   xml:space="preserve"
   sodipodi:docname="Switchyard.svg"
   inkscape:version="1.4.2 (f4327f4, 2025-05-13)"
   xmlns:inkscape="http://www.inkscape.org/namespaces/inkscape"
   xmlns:sodipodi="http://sodipodi.sourceforge.net/DTD/sodipodi-0.dtd"
   xmlns="http://www.w3.org/2000/svg"
   xmlns:svg="http://www.w3.org/2000/svg"><defs
   id="defs577"><inkscape:path-effect
     effect="fillet_chamfer"
     id="path-effect577"
     is_visible="true"
     lpeversion="1"
     nodesatellites_param="F,0,1,1,0,0,0,1 @ F,0,0,1,0,0,0,1 @ F,0,0,1,0,0,0,1 @ F,0,0,1,0,0,0,1 @ F,0,0,1,0,0,0,1 @ F,0,0,1,0,0,0,1 @ F,0,0,1,0,0,0,1 @ F,0,0,1,0,0,0,1 @ F,0,0,1,0,0,0,1 @ F,0,0,1,0,0,0,1 @ F,0,0,1,0,0,0,1 @ F,0,0,1,0,0,0,1 @ F,0,0,1,0,0,0,1 @ F,0,0,1,0,0,0,1 @ F,0,0,1,0,0,0,1 @ F,0,0,1,0,0,0,1 @ F,0,0,1,0,0,0,1 @ F,0,0,1,0,0,0,1 @ F,0,0,1,0,0,0,1 @ F,0,0,1,0,0,0,1 @ F,0,0,1,0,0,0,1 @ F,0,0,1,0,0,0,1 @ F,0,0,1,0,0,0,1 @ F,0,0,1,0,0,0,1 @ F,0,0,1,0,0,0,1 @ F,0,0,1,0,0,0,1"
     radius="0"
     unit="px"
     method="auto"
     mode="F"
     chamfer_steps="1"
     flexible="false"
     use_knot_distance="true"
     apply_no_radius="true"
     apply_with_radius="true"
     only_selected="false"
     hide_knots="false" /></defs><sodipodi:namedview
   id="namedview577"
   pagecolor="#ffffff"
   bordercolor="#000000"
   borderopacity="0.25"
   inkscape:showpageshadow="2"
   inkscape:pageopacity="0.0"
   inkscape:pagecheckerboard="0"
   inkscape:deskcolor="#d1d1d1"
   inkscape:zoom="1.045611"
   inkscape:cx="379.20412"
   inkscape:cy="410.76461"
   inkscape:window-width="3440"
   inkscape:window-height="1417"
   inkscape:window-x="-8"
   inkscape:window-y="-8"
   inkscape:window-maximized="1"
   inkscape:current-layer="Layer_1" />

<path
   fill="#08a48f"
   opacity="1"
   stroke="none"
   d="m 917.21678,1013.3442 c 95.98002,53.5654 265.72422,45.4507 267.21392,39.0988 1.46,-6.2252 5.4623,-9.4598 8.3475,-14.4415 7.005,-6.3864 13.7554,-12.5998 20.8489,-18.8891 7.6908,-2.8227 15.0382,-5.5696 22.7986,-8.2497 5.535,-0.058 10.6676,-0.4489 15.7776,-0.253 11.5831,0.4443 21.8973,4.8961 31.9026,10.9471 6.3682,6.0675 12.5607,11.8651 18.8535,17.9929 2.6264,5.1 5.1527,9.8697 7.7414,15.0189 0.8212,2.7264 1.5796,5.0736 2.3085,7.8359 0.6382,5.4948 1.7277,10.5607 1.8945,15.6569 0.4833,14.7701 -4.4497,27.9381 -13.0047,40.1635 -6.1958,5.9655 -12.1011,11.7565 -18.3423,17.6599 -5.4271,2.6975 -10.518,5.2826 -16.0184,7.8965 -13.4035,4.1488 -26.4482,3.5434 -39.8771,0.3236 -5.4677,-2.0916 -10.5778,-4.0581 -15.9148,-6.2751 -8.9718,-5.0869 -15.9541,-11.8491 -21.7272,-19.9314 -1.91,-2.6742 -3.8144,-5.3524 -5.8818,-8.3322 -1.485,-1.0708 -2.8095,-1.8382 -4.5589,-2.7508 C 931.85117,1089.891 979.96142,1161.5367 589.9174,782.6672 510.13096,698.84764 446.70674,637.31233 300.66229,627.09839 c -0.28399,-0.42291 -0.40643,-0.586 -0.027,-0.91016 16.76699,-0.49994 33.03207,-0.83868 49.60974,-0.89843 8.20215,0.40063 16.09451,0.42755 23.98068,0.66241 20.53732,0.61145 41.06998,1.3844 61.60824,1.95874 16.7439,0.46814 42.55373,0.26378 46.48114,0.29434"
   id="path2"
   sodipodi:nodetypes="cscccsccccscccccscccccccsc"
   inkscape:path-effect="#path-effect577"
   inkscape:original-d="m 917.21678,1013.3442 c 95.98002,53.5654 265.72422,45.4507 267.21392,39.0988 1.46,-6.2252 5.4623,-9.4598 8.3475,-14.4415 7.005,-6.3864 13.7554,-12.5998 20.8489,-18.8891 7.6908,-2.8227 15.0382,-5.5696 22.7986,-8.2497 5.535,-0.058 10.6676,-0.4489 15.7776,-0.253 11.5831,0.4443 21.8973,4.8961 31.9026,10.9471 6.3682,6.0675 12.5607,11.8651 18.8535,17.9929 2.6264,5.1 5.1527,9.8697 7.7414,15.0189 0.8212,2.7264 1.5796,5.0736 2.3085,7.8359 0.6382,5.4948 1.7277,10.5607 1.8945,15.6569 0.4833,14.7701 -4.4497,27.9381 -13.0047,40.1635 -6.1958,5.9655 -12.1011,11.7565 -18.3423,17.6599 -5.4271,2.6975 -10.518,5.2826 -16.0184,7.8965 -13.4035,4.1488 -26.4482,3.5434 -39.8771,0.3236 -5.4677,-2.0916 -10.5778,-4.0581 -15.9148,-6.2751 -8.9718,-5.0869 -15.9541,-11.8491 -21.7272,-19.9314 -1.91,-2.6742 -3.8144,-5.3524 -5.8818,-8.3322 -1.485,-1.0708 -2.8095,-1.8382 -4.5589,-2.7508 C 931.85117,1089.891 979.96142,1161.5367 589.9174,782.6672 510.13096,698.84764 446.70674,637.31233 300.66229,627.09839 c -0.28399,-0.42291 -0.40643,-0.586 -0.027,-0.91016 16.76699,-0.49994 33.03207,-0.83868 49.60974,-0.89843 8.20215,0.40063 16.09451,0.42755 23.98068,0.66241 20.53732,0.61145 41.06998,1.3844 61.60824,1.95874 16.7439,0.46814 42.55373,0.26378 46.48114,0.29434" />
<path
   fill="#065aa4"
   opacity="1"
   stroke="none"
   d="m 486.07422,629.01355 c -16.74692,-0.36023 -33.49628,-0.63446 -50.24018,-1.1026 -20.53826,-0.57434 -41.07092,-1.34729 -61.60824,-1.95874 -7.88617,-0.23486 -15.77853,-0.26178 -23.5791,-0.74554 7.46579,-1.30079 14.82995,-2.35743 22.2225,-3.14899 10.02979,-1.07392 20.19278,-1.31183 30.09671,-3.05536 13.86054,-2.43988 27.45245,-6.39795 41.30768,-8.87738 22.81079,-4.08203 45.77594,-7.29572 68.60886,-11.26202 18.37182,-3.19129 54.42981,-13.86042 54.42981,-13.86042 l 16.15857,0.6058 49.79968,37.47987 15.07251,9.77166 c 249.26703,226.49193 314.75901,169.64512 700.18138,169.55958 6.242,-15.38959 16.7482,-26.857 30.0397,-36.28992 0.6731,-0.34448 1.0791,-0.66736 1.8312,-1.06482 2.7738,-1.36883 5.2013,-2.66314 8.0288,-3.95227 10.4602,-3.86981 20.9078,-4.74261 31.9056,-3.87286 5.4808,1.24206 10.6178,2.34021 16.0455,3.64874 2.7272,1.20709 5.1637,2.2038 7.7913,3.46997 11.0736,6.58667 19.6314,15.31549 26.6467,26.07312 2.2231,5.40863 4.3803,10.45606 6.5647,15.87763 0.6374,2.83374 1.2475,5.29333 1.8177,8.15527 0.4348,5.06744 1.2102,9.72833 1.2773,14.39935 0.044,3.0365 -0.9446,6.08783 -1.7054,9.41028 -0.8652,2.70008 -1.4955,5.12232 -2.3448,7.8169 -2.341,5.07061 -4.4631,9.86889 -6.8646,14.86132 -3.5875,4.33191 -6.4676,8.92127 -10.2766,12.53003 -17.3071,16.39685 -37.6405,23.07288 -61.3606,18.19861 -1.0083,-0.20721 -2.2357,0.65106 -3.4215,1.0791 -0.061,0.0662 -0.04,0.24427 -0.04,0.24427 0,0 0.047,-0.0239 0.3779,-0.35779 -1.7375,-1.40271 -3.8056,-2.4715 -6.1272,-3.77722 -5.7501,-3.08478 -11.2467,-5.93262 -16.9278,-9.05829 -5.2839,-5.29462 -10.3833,-10.31147 -15.5488,-15.6004 -0.6158,-1.01667 -1.1654,-1.76117 -1.8141,-2.84595 -2.9212,-6.06128 -6.786,-10.01811 -13.8389,-9.97205 -488.48984,3.18986 -454.91956,17.98609 -752.94335,-194.16931 -21.06373,-19.8084 -44.87319,-23.89021 -71.92383,-26.47156 -2.28503,-0.53009 -4.27484,-0.83282 -6.55322,-1.39294 -7.88779,-0.28632 -15.487,-0.31531 -23.08618,-0.34424 z"
   id="path3"
   sodipodi:nodetypes="csscscssccccccccccccccccccsscccccccsccccc" />
<path
   fill="#025cc7"
   opacity="1"
   stroke="none"
   d="m 645.91415,631.62922 c 0,0 -49.53217,-31.65096 -62.86598,-46.10542 296.68897,-16.2596 594.72403,-11.92181 891.80173,-9.59673 l 1.1962,-56.15161 123.1638,83.71155 -123.6668,87.32585 c 0,0 -0.4874,-53.17452 -0.4925,-67.32774 -270.1106,-6.88097 -566.46727,-3.07015 -829.13645,8.1441 z"
   id="path4"
   style="display:inline"
   sodipodi:nodetypes="cccccccc" />















































































































































































































































































































































































































































































<path
   fill="#293849"
   opacity="1"
   stroke="none"
   d="m 339.60892,552.15454 c 2.18661,-0.21411 3.9848,-0.2973 6.11032,-0.5282 1.24167,-0.0984 2.156,-0.049 3.901,0.18103 12.58301,0.53943 24.3353,0.8982 36.44159,1.49665 26.44516,3.13586 52.62549,5.40374 78.60492,9.08807 32.14215,4.55829 63.52795,12.81531 94.70721,21.79889 2.2489,0.64807 4.83747,0.11719 7.24018,0.13861 -0.0279,0.004 -0.0737,-0.0291 0.035,0.17261 0.1087,0.2016 0.34912,0.59149 0.34912,0.59149 -17.2727,7.59222 -35.74402,10.57794 -54.11584,13.76923 -22.83292,3.9663 -45.79807,7.17999 -68.60886,11.26202 -13.85523,2.47943 -27.44714,6.4375 -41.30768,8.87738 -9.90393,1.74353 -20.06692,1.98144 -30.09671,3.05536 -7.39255,0.79156 -14.75671,1.8482 -22.53509,2.86993 -16.66666,0.42194 -32.93174,0.76068 -50.05439,1.26258 -2.665,0.0454 -4.47244,-0.0723 -6.2799,-0.19001 -91.26758,-1.63485 -165.43698,-0.31245 -217.551608,-1.49183 -1.22152,-0.0974 -1.976876,-0.20624 -3.110169,-0.25476 -7.076751,-2.07904 -13.775558,-4.21857 -20.81752,-6.50439 -3.610523,-3.85413 -6.877895,-7.56189 -10.396099,-11.49341 -1.192764,-2.68701 -2.134693,-5.15027 -3.228191,-7.94281 -0.437561,-2.71552 -0.723549,-5.10175 -1.06276,-8.32599 -0.0035,-3.22479 0.04612,-5.61169 0.09579,-7.99854 0.694069,-2.03478 1.388142,-4.06951 2.157406,-6.45739 9.006382,-16.5083 22.871376,-23.58704 41.100357,-22.75824 3.306808,0.15039 255.625224,-0.29967 258.421924,-0.61828 z"
   id="path468"
   sodipodi:nodetypes="ccccsscscsssscccccccccccsc" />






















































<path
   fill="#e43b33"
   opacity="1"
   stroke="none"
   d="m 566.64209,584.32538 c -2.43066,-0.0172 -5.01923,0.51367 -7.26813,-0.1344 -31.17926,-8.98358 -62.56506,-17.2406 -94.70721,-21.79889 -25.97943,-3.68433 -52.15976,-5.95221 -78.11096,-9.17078 3.13504,-0.29382 6.13119,-0.19708 9.12487,-0.24768 20.78278,-0.35083 41.74384,0.84699 62.30497,-1.48022 29.63025,-3.35352 60.10899,-4.68886 88.42434,-14.15546 229.13724,-76.60692 257.45626,-203.07979 841.71173,-189.86323 4.1498,0.0939 5.8868,-2.67105 7.86,-5.21253 1.8268,-2.35284 3.1919,-5.06402 4.8315,-7.95132 4.0557,-4.42392 8.0401,-8.51386 12.1846,-12.89575 0.9973,-0.84046 1.8344,-1.38892 2.8362,-2.18927 8.6456,-5.47974 17.6496,-9.40439 27.8513,-11.38849 1.0876,-0.16477 1.8231,-0.16254 3.3606,-0.18765 4.5105,-0.40842 8.2192,-0.78952 11.9279,-1.17057 2.6854,0.57502 5.3708,1.15003 8.5236,1.70746 5.5506,1.92304 10.6338,3.86368 16.0807,5.88877 4.4217,2.90591 8.4652,5.7478 12.5397,8.54486 9.769,6.70617 15.7594,16.29556 20.7489,27.09436 1.0193,2.76495 1.821,5.25747 2.8384,8.02261 3.1341,13.51074 2.5006,26.56479 -1.8333,39.8313 -2.6581,5.47546 -5.2968,10.54767 -8.0412,15.95831 -5.0219,5.45774 -9.9379,10.57703 -15.0332,15.98163 -1.0126,0.74756 -1.846,1.20984 -2.8262,1.9248 -5.2914,2.71125 -10.4359,5.16983 -15.8287,7.83475 -5.553,1.2789 -10.8321,3.06265 -16.1684,3.25415 -7.6404,0.27414 -15.3226,-0.61502 -23.4319,-1.01571 -2.8919,-0.83741 -5.3387,-1.66663 -8.1604,-2.50751 -1.3044,-0.42719 -2.2342,-0.84271 -3.6772,-1.4931 -1.9152,-0.89319 -3.3168,-1.55146 -4.7185,-2.20975 -2.3591,-1.54889 -4.7182,-3.09778 -7.4186,-4.7424 -0.8767,-0.60611 -1.4122,-1.11649 -2.2259,-1.67975 -8.2492,-5.22693 -12.5975,-13.2464 -17.0339,-21.2301 -1.7729,-3.19052 -3.8654,-6.2034 -6.3114,-9.61759 -1.1153,-0.26498 -1.7318,-0.20953 -2.3481,-0.15408 -1.2838,-0.0698 -2.5678,-0.13965 -4.2296,-0.12305 -467.33696,-13.87785 -547.84488,89.61904 -811.26552,186.7345 -0.667,0.30151 -1.09693,0.36444 -1.84082,0.51849 -0.31397,0.0912 -0.55439,-0.2987 -0.65247,-0.46783 -0.0981,-0.16913 -0.0177,-0.20929 -0.0177,-0.20929 z"
   id="path523"
   sodipodi:nodetypes="ccscccsssccccccccscccccccsccccccscccccscc" />
































<path
   fill="#fab527"
   opacity="1"
   stroke="none"
   d="m 573.7202,527.97373 c -6.84358,5.93084 -18.84991,6.45421 -27.31023,9.36422 -32.14438,11.05639 -58.79409,10.80194 -88.42434,14.15546 -20.56113,2.32721 -41.52219,1.12939 -62.30497,1.48022 -2.99368,0.0506 -5.98983,-0.0461 -9.47882,0.008 -12.2463,-0.276 -23.99859,-0.63477 -36.23877,-1.15503 1.48072,-0.73218 3.44928,-1.30292 5.73584,-2.08753 371.2613,-61.39489 277.29179,-380.27972 921.01879,-462.111624 2.6508,-0.336973 5.3234,-1.231415 8.1744,-2.197929 1.475,-2.442276 2.7598,-4.577698 4.0564,-7.066788 3.7032,-5.376251 7.3946,-10.398834 11.2617,-15.699501 5.2207,-3.948479 10.2656,-7.61887 15.5427,-11.536747 8.3083,-2.508743 16.3844,-4.770001 24.8535,-7.126072 2.4429,-0.08902 4.4928,-0.08322 7.22,-0.117203 1.0293,-0.218872 1.1394,-0.494625 1.0073,-0.867042 1.3208,-0.186596 2.7348,-0.769127 3.9447,-0.484677 3.4679,0.815277 6.8531,1.982018 10.7026,3.070175 5.5529,2.13218 10.6739,4.204781 16.1474,6.362019 10.6365,6.789665 19.5796,14.810425 25.7847,25.972382 2.2328,5.323745 4.2225,10.431503 6.4604,15.80281 0.6603,2.763749 1.0725,5.263955 1.7012,8.504727 0.3812,3.1012 0.5459,5.46184 0.7107,7.82247 -0.096,2.34287 -0.1925,4.68572 -0.3958,7.82826 -0.4423,3.19609 -0.7775,5.59248 -1.1127,7.98887 -1.9024,5.12562 -3.8047,10.25124 -5.7444,15.7429 -3.6148,5.49866 -7.1923,10.63132 -10.8877,16.08104 -0.1181,0.31708 -0.355,0.51646 -0.425,0.65323 -2.5604,2.37539 -5.0509,4.61404 -7.7435,7.11088 -1.8227,1.4166 -3.4432,2.575 -5.2494,4.01166 -3.5808,2.07355 -6.9759,3.86879 -10.5924,5.89828 -4.4933,1.67992 -8.7113,4.12676 -13.0486,4.36049 -8.7231,0.47014 -17.5112,-0.26614 -26.6572,-0.45631 -2.832,-0.64416 -5.2793,-1.33664 -8.0976,-1.95938 -5.4218,-2.51535 -10.4727,-5.10042 -15.8765,-7.81488 -6.7705,-6.88565 -13.1884,-13.64194 -19.8706,-20.59775 -1.5905,-2.45805 -3.0241,-4.66141 -4.2163,-6.98851 -1.6143,-3.15123 -4.0015,-4.65549 -8.4087,-4.12134 -3.2151,0.056 -5.583,0.10205 -7.9508,0.14807 -304.40944,24.00406 -441.50804,170.95593 -694.288,390.02215 z"
   id="path556"
   sodipodi:nodetypes="sssscccscccccccsccccccccccccccsccccsccs" />





















</svg>
